<svg width="15" height="15" viewBox="0 0 15 15" fill="none" xmlns="http://www.w3.org/2000/svg">
<g clip-path="url(#clip0_412_334)">
<path d="M3.75001 11.25C3.75001 11.5938 4.03126 11.875 4.37501 11.875H5.00001V14.0625C5.00001 14.5813 5.41876 15 5.93751 15C6.45626 15 6.87501 14.5813 6.87501 14.0625V11.875H8.12501V14.0625C8.12501 14.5813 8.54376 15 9.06251 15C9.58126 15 10 14.5813 10 14.0625V11.875H10.625C10.9688 11.875 11.25 11.5938 11.25 11.25V5H3.75001V11.25ZM2.18751 5C1.66876 5 1.25001 5.41875 1.25001 5.9375V10.3125C1.25001 10.8313 1.66876 11.25 2.18751 11.25C2.70626 11.25 3.12501 10.8313 3.12501 10.3125V5.9375C3.12501 5.41875 2.70626 5 2.18751 5ZM12.8125 5C12.2938 5 11.875 5.41875 11.875 5.9375V10.3125C11.875 10.8313 12.2938 11.25 12.8125 11.25C13.3313 11.25 13.75 10.8313 13.75 10.3125V5.9375C13.75 5.41875 13.3313 5 12.8125 5ZM9.70626 1.35L10.5188 0.5375C10.6438 0.4125 10.6438 0.21875 10.5188 0.09375C10.3938 -0.03125 10.2 -0.03125 10.075 0.09375L9.15001 1.01875C8.65626 0.76875 8.09376 0.625 7.50001 0.625C6.90001 0.625 6.33751 0.76875 5.83751 1.01875L4.90626 0.09375C4.78126 -0.03125 4.58751 -0.03125 4.46251 0.09375C4.33751 0.21875 4.33751 0.4125 4.46251 0.5375L5.28126 1.35625C4.35626 2.0375 3.75001 3.13125 3.75001 4.375H11.25C11.25 3.13125 10.6438 2.03125 9.70626 1.35ZM6.25001 3.125H5.62501V2.5H6.25001V3.125ZM9.37501 3.125H8.75001V2.5H9.37501V3.125Z" fill="black"/>
</g>
<defs>
<clipPath id="clip0_412_334">
<rect width="15" height="15" fill="white"/>
</clipPath>
</defs>
</svg>
